<svg fill="#000000" xmlns="http://www.w3.org/2000/svg"  viewBox="0 0 26 26" width="26px" height="26px"><path d="M 13 0.09375 C 10.523438 0.09375 8.515625 0.84375 7.125 2.25 C 6.542969 2.839844 6.070313 3.535156 5.71875 4.3125 C 5.636719 4.328125 4.246094 4.625 2.90625 5.84375 C 1.523438 7.097656 0.1875 9.359375 0.1875 13.09375 C 0.1875 17.421875 1.21875 23.25 1.21875 23.25 C 1.234375 23.558594 1.429688 23.832031 1.714844 23.949219 C 2.003906 24.066406 2.332031 24.007813 2.558594 23.796875 C 2.789063 23.585938 2.875 23.265625 2.78125 22.96875 C 2.78125 22.96875 1.8125 17.167969 1.8125 13.09375 C 1.8125 9.726563 2.933594 8 4 7.03125 C 4.402344 6.664063 4.765625 6.425781 5.09375 6.25 C 4.984375 6.800781 4.933594 7.371094 4.90625 7.96875 C 4.90625 7.988281 4.90625 8.011719 4.90625 8.03125 C 4.90625 8.042969 4.90625 8.050781 4.90625 8.0625 C 4.621094 8.570313 4.234375 9.320313 3.875 10.5625 C 3.292969 12.566406 2.878906 15.492188 3.5 19.3125 C 3.5 19.324219 3.5 19.332031 3.5 19.34375 C 3.617188 19.996094 3.992188 21.402344 4.34375 22.71875 C 4.695313 24.035156 5.03125 25.21875 5.03125 25.21875 C 5.085938 25.519531 5.304688 25.761719 5.597656 25.84375 C 5.890625 25.929688 6.207031 25.839844 6.410156 25.613281 C 6.617188 25.386719 6.675781 25.066406 6.5625 24.78125 C 6.5625 24.78125 6.253906 23.621094 5.90625 22.3125 C 5.558594 21.003906 5.175781 19.507813 5.09375 19.0625 C 4.511719 15.480469 4.886719 12.796875 5.40625 11 C 5.707031 9.964844 6.015625 9.324219 6.25 8.90625 C 6.476563 8.757813 6.625 8.519531 6.65625 8.25 C 6.667969 8.238281 6.675781 8.230469 6.6875 8.21875 C 6.6875 8.199219 6.6875 8.175781 6.6875 8.15625 C 6.746094 8.007813 6.753906 7.84375 6.71875 7.6875 C 6.859375 5.871094 7.425781 4.492188 8.375 3.53125 C 9.382813 2.511719 10.875 1.90625 13 1.90625 C 15.125 1.90625 16.617188 2.511719 17.625 3.53125 C 18.574219 4.492188 19.140625 5.871094 19.28125 7.6875 C 19.257813 7.824219 19.265625 7.964844 19.3125 8.09375 C 19.3125 8.105469 19.3125 8.113281 19.3125 8.125 C 19.3125 8.136719 19.3125 8.144531 19.3125 8.15625 C 19.316406 8.480469 19.496094 8.78125 19.78125 8.9375 C 20.011719 9.363281 20.308594 10.015625 20.59375 11 C 21.113281 12.796875 21.488281 15.480469 20.90625 19.0625 C 20.824219 19.550781 20.441406 21.085938 20.09375 22.40625 C 19.746094 23.726563 19.4375 24.875 19.4375 24.875 C 19.324219 25.160156 19.382813 25.480469 19.589844 25.707031 C 19.792969 25.933594 20.109375 26.023438 20.402344 25.9375 C 20.695313 25.855469 20.914063 25.613281 20.96875 25.3125 C 20.96875 25.3125 21.304688 24.144531 21.65625 22.8125 C 22.007813 21.480469 22.382813 20.054688 22.5 19.34375 C 22.5 19.332031 22.5 19.324219 22.5 19.3125 C 23.121094 15.492188 22.707031 12.566406 22.125 10.5625 C 21.757813 9.292969 21.375 8.53125 21.09375 8.03125 C 21.09375 8.011719 21.09375 7.988281 21.09375 7.96875 C 21.066406 7.371094 21.015625 6.800781 20.90625 6.25 C 21.234375 6.425781 21.597656 6.664063 22 7.03125 C 23.066406 8 24.1875 9.726563 24.1875 13.09375 C 24.1875 17.167969 23.21875 22.96875 23.21875 22.96875 C 23.125 23.265625 23.210938 23.585938 23.441406 23.796875 C 23.667969 24.007813 23.996094 24.066406 24.285156 23.949219 C 24.570313 23.832031 24.765625 23.558594 24.78125 23.25 C 24.78125 23.25 25.8125 17.421875 25.8125 13.09375 C 25.8125 9.359375 24.476563 7.097656 23.09375 5.84375 C 21.753906 4.625 20.363281 4.328125 20.28125 4.3125 C 19.929688 3.535156 19.457031 2.839844 18.875 2.25 C 17.484375 0.84375 15.476563 0.09375 13 0.09375 Z M 6.3125 10.3125 C 6.3125 10.3125 5.746094 12.082031 6.4375 13.53125 C 6.207031 14.195313 5.601563 15.976563 5.34375 16.75 C 5.140625 17.390625 5.183594 18.082031 5.4375 18.625 C 5.691406 19.167969 6.109375 19.558594 6.59375 19.875 C 7.292969 20.332031 8.136719 20.59375 9 20.71875 L 9 22 C 9 22.832031 9.574219 23.535156 10.0625 23.78125 C 10.550781 24.027344 11 24 11 24 L 15 24 C 15 24 15.449219 24.027344 15.9375 23.78125 C 16.425781 23.535156 17 22.832031 17 22 L 17 20.71875 C 17.863281 20.59375 18.707031 20.332031 19.40625 19.875 C 19.890625 19.558594 20.308594 19.167969 20.5625 18.625 C 20.816406 18.082031 20.859375 17.390625 20.65625 16.75 C 20.410156 16.007813 19.851563 14.402344 19.59375 13.65625 C 20.382813 12.183594 19.8125 10.3125 19.8125 10.3125 C 19.8125 10.3125 17.292969 12.59375 13.09375 13.59375 C 13.09375 13.59375 13.414063 14.789063 13.8125 15.1875 C 14.15625 15.53125 16.328125 16.902344 18.40625 15.09375 C 18.722656 15.996094 18.988281 16.746094 19.15625 17.25 L 19.125 17.25 C 19.222656 17.558594 19.21875 17.738281 19.125 17.9375 C 19.03125 18.136719 18.832031 18.335938 18.53125 18.53125 C 18.144531 18.78125 17.585938 18.953125 17 19.0625 L 17 18 C 16.996094 17.675781 16.832031 17.371094 16.5625 17.1875 L 15.28125 16.28125 C 15.058594 16.113281 14.773438 16.042969 14.5 16.09375 C 14.082031 16.15625 13.75 16.472656 13.664063 16.882813 C 13.582031 17.296875 13.765625 17.71875 14.125 17.9375 L 15 18.53125 L 15 22 L 11 22 L 11 18.53125 L 11.75 18.03125 C 12.097656 17.859375 12.3125 17.503906 12.304688 17.117188 C 12.300781 16.730469 12.070313 16.382813 11.714844 16.222656 C 11.363281 16.0625 10.949219 16.125 10.65625 16.375 L 9.4375 17.15625 C 9.160156 17.347656 8.996094 17.664063 9 18 L 9 19.0625 C 8.414063 18.953125 7.855469 18.78125 7.46875 18.53125 C 7.167969 18.335938 6.96875 18.136719 6.875 17.9375 C 6.78125 17.738281 6.777344 17.558594 6.875 17.25 L 6.84375 17.25 C 7.015625 16.730469 7.304688 15.945313 7.625 15.03125 C 9.714844 16.847656 11.925781 15.449219 12.1875 15.1875 C 12.585938 14.789063 12.90625 13.59375 12.90625 13.59375 C 8.707031 12.59375 6.3125 10.3125 6.3125 10.3125 Z"/></svg>